<mxfile host="app.diagrams.net" modified="2023-11-06T12:54:46.651Z" agent="Mozilla/5.0 (Windows NT 10.0; WOW64) AppleWebKit/537.36 (KHTML, like Gecko) Chrome/109.0.0.0 Safari/537.36" etag="npgGLQSl6W-_D-Ocrmdd" version="22.0.8" type="device">
  <diagram id="C5RBs43oDa-KdzZeNtuy" name="Page-1">
    <mxGraphModel dx="1006" dy="566" grid="1" gridSize="10" guides="1" tooltips="1" connect="1" arrows="1" fold="1" page="1" pageScale="1" pageWidth="827" pageHeight="1169" math="0" shadow="0">
      <root>
        <mxCell id="WIyWlLk6GJQsqaUBKTNV-0" />
        <mxCell id="WIyWlLk6GJQsqaUBKTNV-1" parent="WIyWlLk6GJQsqaUBKTNV-0" />
        <mxCell id="EsNUO3VtLHSYYA-XuaFm-2" style="edgeStyle=orthogonalEdgeStyle;rounded=0;orthogonalLoop=1;jettySize=auto;html=1;exitX=0.5;exitY=1;exitDx=0;exitDy=0;entryX=0.5;entryY=0;entryDx=0;entryDy=0;" edge="1" parent="WIyWlLk6GJQsqaUBKTNV-1" source="EsNUO3VtLHSYYA-XuaFm-0" target="EsNUO3VtLHSYYA-XuaFm-1">
          <mxGeometry relative="1" as="geometry" />
        </mxCell>
        <mxCell id="EsNUO3VtLHSYYA-XuaFm-0" value="Start" style="ellipse;whiteSpace=wrap;html=1;" vertex="1" parent="WIyWlLk6GJQsqaUBKTNV-1">
          <mxGeometry x="354" width="120" height="80" as="geometry" />
        </mxCell>
        <mxCell id="EsNUO3VtLHSYYA-XuaFm-4" style="edgeStyle=orthogonalEdgeStyle;rounded=0;orthogonalLoop=1;jettySize=auto;html=1;exitX=0.5;exitY=1;exitDx=0;exitDy=0;entryX=0.5;entryY=0;entryDx=0;entryDy=0;" edge="1" parent="WIyWlLk6GJQsqaUBKTNV-1" source="EsNUO3VtLHSYYA-XuaFm-1" target="EsNUO3VtLHSYYA-XuaFm-3">
          <mxGeometry relative="1" as="geometry" />
        </mxCell>
        <mxCell id="EsNUO3VtLHSYYA-XuaFm-1" value="a=5&lt;br&gt;b=6&lt;br&gt;c=7" style="shape=parallelogram;perimeter=parallelogramPerimeter;whiteSpace=wrap;html=1;fixedSize=1;" vertex="1" parent="WIyWlLk6GJQsqaUBKTNV-1">
          <mxGeometry x="354" y="120" width="120" height="60" as="geometry" />
        </mxCell>
        <mxCell id="EsNUO3VtLHSYYA-XuaFm-6" style="edgeStyle=orthogonalEdgeStyle;rounded=0;orthogonalLoop=1;jettySize=auto;html=1;exitX=0.5;exitY=1;exitDx=0;exitDy=0;entryX=0.5;entryY=0;entryDx=0;entryDy=0;" edge="1" parent="WIyWlLk6GJQsqaUBKTNV-1" source="EsNUO3VtLHSYYA-XuaFm-3" target="EsNUO3VtLHSYYA-XuaFm-5">
          <mxGeometry relative="1" as="geometry" />
        </mxCell>
        <mxCell id="EsNUO3VtLHSYYA-XuaFm-3" value="i1:=a&lt;br&gt;i2:=c" style="rounded=0;whiteSpace=wrap;html=1;" vertex="1" parent="WIyWlLk6GJQsqaUBKTNV-1">
          <mxGeometry x="354" y="220" width="120" height="60" as="geometry" />
        </mxCell>
        <mxCell id="EsNUO3VtLHSYYA-XuaFm-8" value="" style="edgeStyle=orthogonalEdgeStyle;rounded=0;orthogonalLoop=1;jettySize=auto;html=1;" edge="1" parent="WIyWlLk6GJQsqaUBKTNV-1" source="EsNUO3VtLHSYYA-XuaFm-5" target="EsNUO3VtLHSYYA-XuaFm-7">
          <mxGeometry relative="1" as="geometry" />
        </mxCell>
        <mxCell id="EsNUO3VtLHSYYA-XuaFm-5" value="i1=c&lt;br&gt;i2=a" style="rounded=0;whiteSpace=wrap;html=1;" vertex="1" parent="WIyWlLk6GJQsqaUBKTNV-1">
          <mxGeometry x="354" y="320" width="120" height="60" as="geometry" />
        </mxCell>
        <mxCell id="EsNUO3VtLHSYYA-XuaFm-10" value="" style="edgeStyle=orthogonalEdgeStyle;rounded=0;orthogonalLoop=1;jettySize=auto;html=1;" edge="1" parent="WIyWlLk6GJQsqaUBKTNV-1" source="EsNUO3VtLHSYYA-XuaFm-7" target="EsNUO3VtLHSYYA-XuaFm-9">
          <mxGeometry relative="1" as="geometry" />
        </mxCell>
        <mxCell id="EsNUO3VtLHSYYA-XuaFm-7" value="abc" style="shape=parallelogram;perimeter=parallelogramPerimeter;whiteSpace=wrap;html=1;fixedSize=1;" vertex="1" parent="WIyWlLk6GJQsqaUBKTNV-1">
          <mxGeometry x="354" y="420" width="120" height="60" as="geometry" />
        </mxCell>
        <mxCell id="EsNUO3VtLHSYYA-XuaFm-9" value="End" style="ellipse;whiteSpace=wrap;html=1;" vertex="1" parent="WIyWlLk6GJQsqaUBKTNV-1">
          <mxGeometry x="354" y="505" width="120" height="80" as="geometry" />
        </mxCell>
      </root>
    </mxGraphModel>
  </diagram>
</mxfile>
